<svg xmlns="http://www.w3.org/2000/svg" xml:space="preserve" id="Layer_1" x="0" y="0" version="1.1" viewBox="0 0 230 230"><style>.st0{fill:#67b7e5}</style><path d="M114.61 0C51.31 0 0 51.31 0 114.6s51.31 114.6 114.61 114.6 114.6-51.31 114.6-114.6S177.9 0 114.61 0zm34.44 106.94c-23 .29-41.55 18.87-41.84 41.84h-.02c0 .18.01.35.01.53 0 14.94-12.11 27.05-27.05 27.05S53.1 164.25 53.1 149.31c0-14.94 12.11-27.05 27.05-27.05h.02a41.877 41.877 0 0 0 29.68-12.37 41.848 41.848 0 0 0 12.14-29.79v-.21h.01c0-14.94 12.11-27.05 27.05-27.05 14.94 0 27.05 12.11 27.05 27.05 0 14.94-12.11 27.05-27.05 27.05z" class="st0"/></svg>