<svg xmlns="http://www.w3.org/2000/svg" width="2700" height="2700"><path fill="#fec635" d="M760 2479c-5.962 13.12-12.367 25.37-13.829 40-1.02 10.2-.335 21.01 1.844 31 14.134 64.8 81.734 78 137.985 78 61.342 0 120.49-11.75 180-25.77 56.55-13.31 113.27-26.12 170-38.65 46.8-10.34 96.59-28.66 145-26.54 90.17 3.95 165.99 78.43 259 55.59 45.76-11.24 87.41-41.55 127-66.2 65.29-40.67 131.59-80.83 194-125.84 35.22-25.4 78.95-47.15 100.33-86.59 15.08-27.81 15.42-63.34 12.5-94-2.08-21.88-6.98-55.32 6.01-74.96 3.69-5.57 11.52-8.8 17.16-12.04 13.45-7.73 27.28-14.72 41-21.94 27.65-14.55 56.28-28.42 85-40.77 33.26-14.31 65.72-27.67 87.5-58.33 19.63-27.64 25.69-60.69 21.21-93.96-2.98-22.17-10.14-43.59-12.54-66-.97-9.04-3.08-18.92-1.99-28 1.97-16.41 7.82-31.03 7.82-48 0-13.31-5.07-26.12-5.07-39 0-12.92 5.73-25.73 4.98-39-.58-10.18-5.2-23.04-4.15-32.89.41-3.95 5.23-4.69 8.24-5.98 7.72-3.32 15.9-7.17 23-11.67 22.83-14.48 42.26-33.63 53.77-58.46 12.66-27.32 15.13-57.03 7.34-86-2.17-8.08-5.79-16.11-10.55-23-1.79-2.6-6.45-7.07-5.84-10.54 1.18-6.82 18.13-15.61 23.28-19.9 20.54-17.06 39.89-35.42 58.3-54.73 63.8-66.95 118.83-165.94 87.61-260.83-28.96-88-115.85-133.37-202.91-145.714-20.9-2.964-41.96-4.325-63-5.247-15.16-.663-26.15 1.898-39-7.039v-1c17.43-16.389 30.3-41.154 43.81-60.83 14.59-21.252 31.66-42.056 43.22-65.17 15.29-30.581 17.27-64.451 7.53-97-6.55-21.882-22.23-42.747-39.56-57.246-4.96-4.149-22.38-12.608-20.76-19.769 6.07-26.819 27.42-56.235 43.48-77.985 50.29-68.127 120.08-122.314 199.28-152.939 41.03-15.866 86.9-21.309 127-39.061-7.21-9.763-20.37-16.547-30-23.84-20.93-15.843-41.85-31.712-63-47.249-76.14-55.938-151.78-111.8-236-155.27-66.3-34.221-133.91-63.109-205-85.896-153.5-49.203-319.94-62.792-480-51.834-87.29 5.976-174.83 15.692-260 36.984-200.02 50.004-387.55 144.108-539 285.194C776.313 433.594 715.462 517.644 662.449 606c-82.526 137.547-141.293 293.618-176.025 450-39.27 176.82-52.491 359.75-60.385 540-2.572 58.75.044 118.5 4.051 177 3.966 57.92 11.272 114.87 3.628 173-18.637 141.73-95.158 264.03-194.142 364.71-32.928 33.5-67.755 64.7-103.152 95.54-11.8 10.28-25.102 18.97-36.424 29.79-43.1 41.2-63.932 115.88-22.572 166.67 46.342 56.91 139.484 49.28 204.572 41.58 119.154-14.12 235.024-40.91 345-89.95 31.076-13.86 61.008-30.39 90-48.15 13.863-8.49 27.888-21.39 43-27.19z"/><path fill="#890226" d="M1461 172c-6.03 46.672-8 91.886-8 139-36.08-31.418-74.27-66.956-88-115-13.19 1.151-27.45 7.151-40 11.333-23.55 7.851-46.95 15.997-70 25.218-101.64 40.655-199.65 94.72-283 166.319-25.854 22.21-51.218 44.947-74.805 69.569-4.841 5.053-22.209 17.951-21.274 25.561.434 3.541 4.741 6.657 7.079 9 6.368 6.381 12.692 12.75 19.424 18.745 13.532 12.05 26.39 24.939 40.576 36.251 12.658 10.094 26.639 18.554 39 29.004-40.241 0-79.021 1.269-119-5.435-12.099-2.029-24.132-4.318-36-7.449-4.042-1.067-10.696-4.752-14.816-2.915-9.308 4.153-18.438 24.417-24.017 32.799-20.706 31.107-39.669 63.153-57.476 96-52.498 96.84-90.659 201.054-120.115 307-8.2 29.49-15.382 59.17-22.227 89-4.19 18.26-9.86 37.3-11.349 56 37.466 2.96 73.167 9.68 111 7.09 8.189-.56 17.077 1.25 25-1.09-23.631 32.85-67.142 54.27-103 70.69-11.376 5.21-23.138 9.39-35 13.31-3.818 1.26-11.439 2.26-13.987 5.56-2.16 2.8-1.936 8.08-2.434 11.44-1.378 9.31-2.615 18.66-3.734 28-4.027 33.64-8.567 67.22-10.934 101-3.926 56.01-8.437 111.84-9.847 167.99C532.184 1630.85 538 1705.4 538 1780c11.027-.48 21.781-5.14 32-8.95 31.666-11.81 57.816-30.8 87-47.05-2.27 52.89-29.471 96.49-70 129.2-12.024 9.7-27.002 22.39-42 26.8 0 45.85-2.498 90.06-12.424 135-30.59 138.49-113.82 253.65-205.861 358-38.134 43.24-82.489 81.61-126.715 118.41-10.566 8.8-21.518 17.13-31.999 26.03-3.639 3.09-9.405 7.98-7.382 13.47 2.185 5.92 12.006 7.56 17.381 8.64 17.311 3.48 35.428 2.53 53 2.45 24.976-.12 50.261-4.47 75-7.72 49.318-6.48 97.988-16.14 146-29.13 211.419-57.19 397.461-199.66 470.922-411.15 33.233-95.68 40.68-194.42 60.077-293 6.304-32.04 14.121-85.29 51.001-96.78 14.16-4.41 33.24-1.22 48-1.22h48c4.93 0 14.43-1.81 18.68 1.03 3.92 2.61 2.41 11.04 1.9 14.97-1.69 12.84-1.12 26.08-2.41 39-4.15 41.53-11.39 82.52-21.64 123-2.97 11.73-6.19 23.48-9.87 35-1.46 4.57-5.06 11.12-3.9 16 2.88 12.12 23.82 23.98 33.24 30.59 37.8 26.52 85.97 42.78 132 46.41 3.55 24.15 7.89 47.5 8.96 72 2.45 55.84-11.5 115.85-35.7 166-10.17 21.08-21.46 44.41-37.93 61.39-17.44 17.98-39.4 31.82-60.33 45.3-44.63 28.75-91.93 52.16-138 78.31-46.185 26.22-95.103 48.98-143 71.9-11.147 5.33-23.729 10.16-33.985 17.07-3.743 2.52-7.68 7.34-4.408 11.82 5.608 7.66 20.959 7.71 29.393 8.3 27.488 1.93 54.647 0 82-2.92 46.22-4.95 91.79-17.43 137-27.93 66.61-15.47 133.23-31.07 200-45.82 62.9-13.89 120.31-17.8 183 .29 49.45 14.27 92.07 45.92 145 45.29 16.19-.2 30.3-8.5 44-16.14 20.33-11.34 40.23-23.51 60-35.8 59.27-36.84 117.58-75.02 176-113.2 19.61-12.81 38.82-26.21 58-39.66 10.89-7.63 23.73-15.19 32.53-25.29 15.99-18.35 6.46-50.22 5.51-71.91-1.77-40.42 1.66-91.11 30.13-123 15.56-17.42 39.46-28.05 59.83-38.78 37.79-19.9 76.47-37.64 115-55.96 26.04-12.39 60.42-21.13 55.71-57.26-5.61-43.08-68.11-43-100.71-43h-189c-44.1 0-88.88 2.56-132-8.48-69.42-17.76-97.61-77.92-129.31-135.52-25.93-47.1-52.04-94.24-78.56-141-13.18-23.23-26.04-46.65-38.99-70-6.72-12.11-16.29-24.64-20.14-38 10.9-4.19 20.36-14.09 30-20.66 20.59-14.01 41.5-27.33 63-39.89 71.58-41.83 152.82-75.96 236-84.28 38.03-3.81 78.93-5.17 115 9.69 30.24 12.46 61.59 43.93 96 36.47 22.98-4.98 53.4-27.12 61.94-49.33 5.65-14.71 4.12-28.89 6.5-44 1.57-9.98 6.79-19.89 14.57-26.38 2.44-2.03 6.44-5.92 9.95-5.09 3.8.89 6.52 6.51 8.54 9.47 5.69 8.36 11.43 16.71 17.22 25 24.3 34.77 52.29 69.15 73.28 106 7.96-1.58 14.62-8.4 21-13.12 14.42-10.66 28.53-21.87 42-33.72 41.21-36.27 82.38-76.84 104.28-128.16 11.33-26.56 16.22-59.76 1.29-86-33.85-59.52-118.26-63-178.57-63-192.9 0-383.48 54.39-558 134.31-60.42 27.67-120.14 57.43-178 90.11-32.21 18.2-67.51 46.78-106 47.53-36.47.7-61.79-24.29-85.08-48.67-31.86-33.34-63.59-66.79-95.21-100.37-12.24-13-24.5-25.98-36.8-38.92-4.03-4.24-12.83-10.28-14.38-16.16-1.28-4.85 4.37-10.94 6.6-14.83 7.24-12.62 14.81-25.07 23.15-37 35.29-50.43 76.25-95.99 123.72-135.25 159.47-131.861 380.73-180.121 580-123.323 47.45 13.525 93.72 32.118 137 55.885 13.62 7.482 27.07 15.734 40 24.355 7.79 5.192 16.26 12.399 26 12.953 16.49.94 27.42-22.109 35.34-33.62 20.63-29.993 42.69-59.006 63.32-89 10.41-15.134 20.72-29.269 3.25-43.985-19.31-16.271-43.83-29.197-65.91-41.321-49.27-27.058-100.42-49.92-154-67.038-206.75-66.057-436.34-50.614-631 46.714-69.01 34.505-132.48 78.438-190 129.796-86.37 77.122-168.24 163.484-225.139 264.834-13.528 24.1-27.232 48.3-39.614 73-4.743 9.46-8.621 23-21.247 20 12.643-29.34 20.879-60.62 33.86-90 27.839-63.01 62.68-122.886 104.04-178 175.95-234.503 469.35-375.021 763.1-354.911 86.42 5.917 172.27 22.519 254 51.603 24.51 8.723 48.55 18.849 72 30.092 11.79 5.654 23.47 14.532 36 18.216 11.31-29.54 21.17-59.014 36.31-87 36.41-67.317 87.52-125.499 148.69-171.374 23.32-17.492 48.97-35.372 76-46.626-4.79-6.204-12.65-10.328-19-14.859-15-10.702-30.67-20.44-46-30.656-61.36-40.901-128.93-77.115-198-103.17-20.32-7.663-40.51-15.403-61-22.624-5.44-1.915-17.47-7.899-23-5.57-11.5 4.847-23.12 24.99-30.66 34.709-13.57 17.499-28.08 34.298-41.18 52.17-9.16 12.489-16.69 26.534-27.16 38l-1.87-48L2005 170c-179.46-34.81-364.66-35.002-544 2m685 1345.61c-13.79 3.28-15.98 27.15-16 38.39-.01 4.25-.73 9.22 1.59 13 12.24 19.92 39.06 15.12 57.41 23.11 6.57 2.86 11.23 9.24 15.29 14.89 4.44 6.19 13.3 18.07 22.5 15.67 3.81-1 5.58-6.76 7.7-9.67 4.55-6.27 9.98-11.57 16.51-15.76 23.41-14.99 54.84-14.22 72.51-38.24 6.08-8.27 13.05-26 4.26-34.77-7.28-7.27-29.08-3.23-38.77-3.23-26.79 0-53.47 1.36-80 5.27-11.59 1.71-23.42 6.27-35 7.16-11.91.92-15.45-18.8-28-15.82m35 127.82c-17 2.03-32.79 6.04-49 11.65-11.78 4.07-24.44 9.97-37 10.83-18.36 1.26-34.31-12.35-53-10.82-10.97.9-20.49 11.63-23.1 21.91-6.01 23.76 16.84 21.75 32.1 21 19.11-.94 37.92-1.52 57-4.27 15.16-2.19 32.07-6.56 47-1.29 20.44 7.21 46.22 33.7 69 28.5 18.52-4.23 16.03-28.23 11.96-41.94-6.85-23.09-30.7-38.47-54.96-35.57m50 190.57c-1.8-7.57-4.12-21.93-1.64-29.42 4.03-12.18 14.09-24.62 8.75-38.58-3.84-10.02-17.82-15.88-27.11-19.32-24.23-8.96-46.67-16.51-72-6.48-13.95 5.53-37.63 20.21-25.59 37.76 3.26 4.76 10.39 12.11 16.59 12.27 7.38.18 14.15-5.51 22-5.13 10.49.52 19.33 6.76 27 13.33 13.46 11.53 30.65 40.96 52 35.57z"/><path fill="#fec635" d="M1621 2158c11.34-3.27 21.97-9.67 33-13.94 22.26-8.61 45.05-15.83 68-22.35 12.87-3.66 25.96-6.43 39-9.36 5.38-1.21 12.27-1.22 16.98-4.24 9.85-6.32 17.48-27.74 17.91-39.11.41-11.08-14.09-10.64-21.89-11.92-24.76-4.07-51.14-6.46-75-14.41-41.88-13.97-55.43-47.92-71.01-85.67-13.73-33.27-26.77-66.87-40.84-100-7.41-17.44-14.46-35.25-21.1-53-1.76-4.7-5.04-15.37-12.01-13.2-6.71 2.09-11.32 14.59-14.64 20.2-5.66 9.55-15.73 21.83-17.21 33-1.67 12.59 5.71 26.28 9.47 38 29.49 91.94 62.51 183.25 89.34 276z"/></svg>