<svg xmlns="http://www.w3.org/2000/svg" viewBox="7 7 27 20">
  <defs>
    <clipPath id="wallet-clip">
      <path d="M33.601,21.437c0,0.199,0,0.398-0.001,0.597c-0.001,0.168-0.003,0.335-0.008,0.503c-0.01,0.365-0.032,0.733-0.097,1.094c-0.067,0.367-0.176,0.708-0.347,1.041c-0.169,0.327-0.389,0.627-0.652,0.886c-0.263,0.26-0.566,0.477-0.898,0.644c-0.337,0.169-0.683,0.277-1.054,0.343c-0.366,0.065-0.739,0.086-1.109,0.096c-0.17,0.005-0.34,0.006-0.509,0.007c-0.202,0.001-0.403,0.001-0.605,0.001l-0.168,0H15.155l-2.316,0c-0.202,0-0.403,0-0.605-0.001c-0.17-0.001-0.34-0.003-0.509-0.007c-0.37-0.01-0.743-0.031-1.109-0.096c-0.371-0.066-0.717-0.173-1.054-0.343c-0.331-0.167-0.635-0.384-0.898-0.644c-0.263-0.26-0.483-0.559-0.652-0.886c-0.172-0.333-0.281-0.674-0.347-1.041C7.6,23.27,7.578,22.902,7.568,22.537c-0.005-0.168-0.007-0.335-0.008-0.503c-0.001-0.199-0.001-0.398-0.001-0.597l0-2.286v-6.999l0-1.459c0-0.127,0-0.254,0.001-0.381c0.001-0.107,0.002-0.214,0.005-0.321c0.006-0.233,0.02-0.468,0.062-0.698c0.043-0.234,0.112-0.452,0.222-0.664c0.108-0.209,0.248-0.4,0.416-0.565c0.168-0.166,0.361-0.305,0.573-0.411C9.052,7.544,9.273,7.475,9.51,7.433c0.233-0.041,0.472-0.055,0.708-0.061c0.108-0.003,0.217-0.004,0.325-0.005c0.129-0.001,0.257-0.001,0.386-0.001l1.478,0h17.722l-1.373,0.001l1.478-0.001c0.129,0,0.257,0,0.386,0.001c0.108,0.001,0.217,0.002,0.325,0.005c0.236,0.006,0.474,0.02,0.708,0.061c0.237,0.042,0.457,0.111,0.672,0.219c0.211,0.106,0.405,0.245,0.573,0.411c0.168,0.166,0.308,0.357,0.416,0.565c0.11,0.213,0.179,0.43,0.222,0.664c0.042,0.23,0.056,0.465,0.062,0.698c0.003,0.107,0.004,0.214,0.005,0.321c0.001,0.127,0.001,0.254,0.001,0.381l0,1.459v6.999L33.601,21.437z"/>
    </clipPath>
    <clipPath id="cards-clip">
      <path d="M8.644,20.764V11.55l0-0.936c0-0.082,0-0.163,0-0.245c0-0.069,0.001-0.137,0.003-0.206c0.004-0.15,0.013-0.3,0.039-0.448c0.027-0.15,0.071-0.29,0.141-0.426c0.068-0.134,0.157-0.257,0.264-0.363C9.198,8.82,9.321,8.731,9.455,8.663c0.136-0.069,0.276-0.113,0.427-0.14c0.148-0.027,0.299-0.035,0.449-0.039c0.069-0.002,0.137-0.003,0.206-0.003c0.082,0,0.163,0,0.245,0l0.937,0h18.592l-0.869,0l0.937,0c0.082,0,0.163,0,0.245,0c0.069,0,0.137,0.001,0.206,0.003c0.15,0.004,0.301,0.013,0.449,0.039c0.15,0.027,0.29,0.071,0.427,0.14c0.134,0.068,0.257,0.157,0.363,0.264c0.106,0.106,0.196,0.229,0.264,0.363c0.07,0.136,0.114,0.276,0.141,0.426c0.027,0.148,0.035,0.299,0.039,0.448c0.002,0.069,0.003,0.137,0.003,0.206c0,0.082,0,0.163,0,0.245l0,0.936v9.214H8.644z"/>
    </clipPath>
  </defs>
  <g clip-path="url(#wallet-clip)">
    <!-- Gray wallet back -->
    <path fill="#D3D1C8" d="M33.601,9.87v16.78H7.559V9.852h0c0-1.423,1.101-2.457,2.459-2.457v0h21.123v0h0c1.358,0,2.459,1.025,2.459,2.457C33.601,9.858,33.601,9.864,33.601,9.87z"/>
    <g clip-path="url(#cards-clip)">
      <!-- Blue card -->
      <path fill="#319DCC" d="M8.644,20.764V11.55l0-0.936c0-0.082,0-0.163,0-0.245c0-0.069,0.001-0.137,0.003-0.206c0.004-0.15,0.013-0.3,0.039-0.448c0.027-0.15,0.071-0.29,0.141-0.426c0.068-0.134,0.157-0.257,0.264-0.363C9.198,8.82,9.321,8.731,9.455,8.663c0.136-0.069,0.276-0.113,0.427-0.14c0.148-0.027,0.299-0.035,0.449-0.039c0.069-0.002,0.137-0.003,0.206-0.003c0.082,0,0.163,0,0.245,0l0.937,0h18.592l-0.869,0l0.937,0c0.082,0,0.163,0,0.245,0c0.069,0,0.137,0.001,0.206,0.003c0.15,0.004,0.301,0.013,0.449,0.039c0.15,0.027,0.29,0.071,0.427,0.14c0.134,0.068,0.257,0.157,0.363,0.264c0.106,0.106,0.196,0.229,0.264,0.363c0.07,0.136,0.114,0.276,0.141,0.426c0.027,0.148,0.035,0.299,0.039,0.448c0.002,0.069,0.003,0.137,0.003,0.206c0,0.082,0,0.163,0,0.245l0,0.936v9.214H8.644z"/>
      <!-- Yellow card -->
      <path fill="#FDB921" d="M8.644,22.932v-9.214l0-0.936c0-0.082,0-0.163,0-0.245c0-0.069,0.001-0.137,0.003-0.206c0.004-0.15,0.013-0.3,0.039-0.448c0.027-0.15,0.071-0.29,0.141-0.426c0.068-0.134,0.157-0.257,0.264-0.363c0.106-0.106,0.229-0.195,0.363-0.264c0.136-0.069,0.276-0.113,0.427-0.14c0.148-0.027,0.299-0.035,0.449-0.039c0.069-0.002,0.137-0.003,0.206-0.003c0.082,0,0.163,0,0.245,0l0.937,0h18.592l-0.869,0l0.937,0c0.082,0,0.163,0,0.245,0c0.069,0,0.137,0.001,0.206,0.003c0.15,0.004,0.301,0.013,0.449,0.039c0.15,0.027,0.29,0.071,0.427,0.14c0.134,0.068,0.257,0.157,0.363,0.264c0.106,0.106,0.196,0.229,0.264,0.363c0.07,0.136,0.114,0.276,0.141,0.426c0.027,0.148,0.035,0.299,0.039,0.448c0.002,0.069,0.003,0.137,0.003,0.206c0,0.082,0,0.163,0,0.245l0,0.936v9.214H8.644z"/>
      <!-- Green card -->
      <path fill="#71BF49" d="M8.644,25.1v-9.214l0-0.936c0-0.082,0-0.163,0-0.245c0-0.069,0.001-0.137,0.003-0.206c0.004-0.15,0.013-0.3,0.039-0.448c0.027-0.15,0.071-0.29,0.141-0.426c0.068-0.134,0.157-0.257,0.264-0.363c0.106-0.106,0.229-0.195,0.363-0.264c0.136-0.069,0.276-0.113,0.427-0.14c0.148-0.027,0.299-0.035,0.449-0.039c0.069-0.002,0.137-0.003,0.206-0.003c0.082,0,0.163,0,0.245,0l0.937,0h18.592l-0.869,0l0.937,0c0.082,0,0.163,0,0.245,0c0.069,0,0.137,0.001,0.206,0.003c0.15,0.004,0.301,0.013,0.449,0.039c0.15,0.027,0.29,0.071,0.427,0.14c0.134,0.068,0.257,0.157,0.363,0.264c0.106,0.106,0.196,0.229,0.264,0.363c0.07,0.136,0.114,0.276,0.141,0.426c0.027,0.148,0.035,0.299,0.039,0.448c0.002,0.069,0.003,0.137,0.003,0.206c0,0.082,0,0.163,0,0.245l0,0.936V25.1H8.644z"/>
      <!-- Red/Coral card -->
      <path fill="#F37163" d="M8.644,25.1v-7.046l0-0.936c0-0.082,0-0.163,0-0.245c0-0.069,0.001-0.137,0.003-0.206c0.004-0.15,0.013-0.3,0.039-0.448c0.027-0.15,0.071-0.29,0.141-0.426c0.068-0.134,0.157-0.257,0.264-0.363c0.106-0.106,0.229-0.195,0.363-0.264c0.136-0.069,0.276-0.113,0.427-0.14c0.148-0.027,0.299-0.035,0.449-0.039c0.069-0.002,0.137-0.003,0.206-0.003c0.082,0,0.163,0,0.245,0l0.937,0h18.592l-0.869,0l0.937,0c0.082,0,0.163,0,0.245,0c0.069,0,0.137,0.001,0.206,0.003c0.15,0.004,0.301,0.013,0.449,0.039c0.15,0.027,0.29,0.071,0.427,0.14c0.134,0.068,0.257,0.157,0.363,0.264c0.106,0.106,0.196,0.229,0.264,0.363c0.07,0.136,0.114,0.276,0.141,0.426c0.027,0.148,0.035,0.299,0.039,0.448c0.002,0.069,0.003,0.137,0.003,0.206c0,0.082,0,0.163,0,0.245l0,0.936V25.1H8.644z"/>
    </g>
    <!-- Gray wallet pocket -->
    <path fill="#D3D1C8" d="M33.601,26.906H7.559v-9.756l6.324,0c0.155,0,0.311,0,0.466,0.001c0.131,0.001,0.262,0.002,0.392,0.006c0.285,0.008,0.572,0.024,0.854,0.075c0.286,0.051,0.552,0.135,0.812,0.267c-0.055-0.028,0.715,0.288,1.391,1.339c0.488,0.758,1.436,1.562,2.763,1.562s2.276-0.804,2.763-1.562c0.642-0.998,1.356-1.322,1.39-1.339c0.26-0.132,0.526-0.216,0.812-0.267c0.282-0.051,0.569-0.067,0.854-0.075c0.131-0.004,0.262-0.005,0.392-0.006c0.155-0.001,0.311-0.001,0.466-0.001l6.362,0V26.906z"/>
  </g>
</svg>
