<svg xmlns="http://www.w3.org/2000/svg" viewBox="0 0 40 40"><path fill="#313d4f" d="M36.618 15.579h-4.525v-5.061l3.015-1.066h-3.015v-.897H8.16v.897H5.101l3.021 1.068.038-.064v5.123H3.591l4.569 1.71v2.837h23.933v-2.854l4.525-1.693z"/><path fill="#68778a" d="M32.087 4.786H8.122c-.174 1.88-1.326 3.38-3.02 4.666h30.006c-1.695-1.287-2.847-2.785-3.021-4.666z"/><path fill="#b5b5b5" d="M37.627 25.207v10.502h-35V25.207c0-.589.24-1.152.664-1.56l4.869-4.672h23.933l4.869 4.672c.425.408.665.971.665 1.56z"/><path fill="#9b5250" d="M20.339 23.793a4.937 4.937 0 0 1 4.935 4.935v6.967h-9.87v-6.967a4.937 4.937 0 0 1 4.935-4.935z"/><path fill="#68778a" d="M32.087 11.432H8.122c-.63 1.887-2.38 3.132-4.531 4.147h33.027c-2.15-1.015-3.9-2.26-4.531-4.147z"/><path fill="none" d="M0 0h40v40H0z"/></svg>