<svg xmlns="http://www.w3.org/2000/svg" fill="none" viewBox="0 0 105 20"><path fill="#FF7E36" d="M7.674 3.699a7.722 7.722 0 0 0-4.066 1.149 7.614 7.614 0 0 0-2.83 3.108 7.52 7.52 0 0 0 .848 8.002l.239.292c.119.139.243.277.373.406A12.42 12.42 0 0 0 7.663 20a12.399 12.399 0 0 0 5.42-3.344c.13-.129.254-.267.373-.406l.244-.292a7.524 7.524 0 0 0 .843-7.999 7.619 7.619 0 0 0-2.828-3.107 7.727 7.727 0 0 0-4.062-1.153h.02Zm0 10.5c-.58 0-1.148-.17-1.63-.49a2.91 2.91 0 0 1-1.08-1.303A2.876 2.876 0 0 1 5.6 9.242a2.96 2.96 0 0 1 3.196-.63c.536.22.994.593 1.316 1.07a2.882 2.882 0 0 1-.365 3.666c-.55.545-1.296.85-2.073.85Z"/><path fill="#00B493" d="M10.171 3.54a1.13 1.13 0 0 0 .661-.444 1.11 1.11 0 0 0-.162-1.47 1.136 1.136 0 0 0-.742-.292 1.186 1.186 0 0 0-.487.108C9.36 1.036 9.14.67 8.817.407a1.815 1.815 0 0 0-2.292 0 1.782 1.782 0 0 0-.623 1.035 1.186 1.186 0 0 0-.488-.108 1.131 1.131 0 0 0-.767.277 1.11 1.11 0 0 0-.162 1.497c.168.225.414.379.691.432a7.628 7.628 0 0 1 4.995 0Z"/><path fill="#FF7E36" d="M42.593 1.106c-.266.09-.408.89-.407 1.382.007.656.264 1.284.716 1.748a2.414 2.414 0 0 0 1.703.736c.479 0 .947-.146 1.346-.419.398-.273.709-.66.892-1.115.183-.454.231-.954.138-1.437A2.508 2.508 0 0 0 46.32.728a2.402 2.402 0 0 0-1.24-.68 2.363 2.363 0 0 0-1.4.142c-.442.188-.82.507-1.086.916ZM46.007 6.187h-2.808a.603.603 0 0 0-.432.184.636.636 0 0 0-.18.443v12.553c0 .166.065.326.18.444.114.117.27.183.432.183h2.808a.598.598 0 0 0 .432-.183.627.627 0 0 0 .18-.444V6.814a.64.64 0 0 0-.18-.443.61.61 0 0 0-.432-.184ZM40.166 19.36v-7.848c0-3.448-2.015-5.706-5.112-5.713-1.91 0-3.145.717-3.899 1.822-.74-1.16-1.932-1.822-3.519-1.822-1.8 0-2.984.717-3.603 1.656v-.643a.643.643 0 0 0-.179-.444.61.61 0 0 0-.432-.183h-2.81a.598.598 0 0 0-.432.183.63.63 0 0 0-.179.444v12.553c0 .166.064.326.179.443.115.118.27.184.432.184h2.81a.603.603 0 0 0 .432-.184.636.636 0 0 0 .18-.443v-7.159c0-1.63.753-2.596 2.096-2.596 1.291 0 1.938.884 1.938 2.265v7.49c0 .166.064.326.179.443.114.118.27.184.432.184h2.81a.603.603 0 0 0 .432-.184.636.636 0 0 0 .179-.443v-7.159c0-1.63.754-2.596 2.099-2.596 1.289 0 1.935.884 1.935 2.265v7.486a.642.642 0 0 0 .18.444.61.61 0 0 0 .431.183h2.81a.603.603 0 0 0 .432-.183.636.636 0 0 0 .18-.444ZM62.137 11.512v7.849a.636.636 0 0 1-.18.444.603.603 0 0 1-.432.184h-2.81a.603.603 0 0 1-.432-.184.636.636 0 0 1-.179-.444v-7.239c0-1.711-1.048-2.512-2.34-2.512-1.48 0-2.5.884-2.5 2.853v6.91a.636.636 0 0 1-.179.443.603.603 0 0 1-.432.184h-2.812a.603.603 0 0 1-.432-.184.636.636 0 0 1-.179-.444V6.82c0-.166.065-.326.18-.444a.603.603 0 0 1 .431-.184h2.812c.162 0 .318.067.432.184a.636.636 0 0 1 .18.444v.67c.725-1.022 2.07-1.684 3.845-1.684 2.715 0 5.027 1.982 5.027 5.706ZM64.567 1.105c-.266.409-.408.89-.408 1.383.007.654.263 1.28.713 1.744.45.464 1.058.73 1.695.74.48.002.949-.141 1.349-.413s.712-.66.897-1.113c.185-.454.235-.955.143-1.438a2.508 2.508 0 0 0-.66-1.276 2.403 2.403 0 0 0-1.24-.683 2.362 2.362 0 0 0-1.4.14 2.436 2.436 0 0 0-1.089.916ZM67.98 6.187H65.17a.603.603 0 0 0-.432.184.636.636 0 0 0-.18.443v12.553c0 .166.065.326.18.444.114.117.27.183.432.183h2.811a.603.603 0 0 0 .433-.183.636.636 0 0 0 .179-.444V6.814a.636.636 0 0 0-.18-.443.603.603 0 0 0-.432-.184Z"/><rect width="31" height="13" x="73.5" y="6.5" fill="#00B493" rx="2.5"/><path fill="#fff" d="M80.607 9.062h-3.399v7.755h3.487c1.65 0 2.684-.858 2.684-2.212v-.01c0-1.002-.748-1.76-1.782-1.849v-.088a1.677 1.677 0 0 0 1.408-1.65v-.01c0-1.2-.902-1.936-2.398-1.936Zm-1.771 6.545v-2.255h1.408c.957 0 1.474.396 1.474 1.11v.011c0 .737-.506 1.133-1.441 1.133h-1.441Zm0-3.322V10.27h1.353c.77 0 1.221.374 1.221 1.002v.01c0 .639-.484 1.002-1.353 1.002h-1.221ZM87.288 16.938c1.727 0 2.486-1.001 2.673-1.738l.011-.055h-1.463l-.011.033c-.11.23-.495.593-1.177.593-.836 0-1.353-.572-1.375-1.54h4.07v-.483c0-1.793-1.067-2.97-2.794-2.97s-2.827 1.198-2.827 3.08v.01c0 1.893 1.089 3.07 2.893 3.07Zm-1.32-3.685c.088-.837.594-1.299 1.276-1.299s1.177.44 1.265 1.298h-2.541ZM90.814 10.899v1.188h.913v3.135c0 1.144.583 1.617 2.013 1.617.308 0 .594-.034.792-.066v-1.166c-.154.01-.264.022-.462.022-.539 0-.759-.231-.759-.77v-2.773h1.221v-1.188h-1.22V9.492h-1.585v1.408h-.913ZM97.448 16.904c.77 0 1.397-.33 1.694-.869h.1v.782h1.55V12.78c0-1.265-.89-2.002-2.464-2.002-1.485 0-2.464.681-2.585 1.715v.056h1.441l.011-.022c.132-.352.484-.55 1.056-.55.638 0 .99.285.99.803v.484l-1.43.088c-1.474.088-2.288.704-2.288 1.77v.011c0 1.079.792 1.771 1.925 1.771Zm-.396-1.87v-.01c0-.43.32-.682 1.001-.726l1.188-.066v.429c0 .627-.539 1.1-1.265 1.1-.55 0-.924-.275-.924-.726Z"/><rect width="31" height="13" x="73.5" y="6.5" stroke="#00B493" rx="2.5"/></svg>