<svg xmlns:xlink="http://www.w3.org/1999/xlink" viewBox="-35 -95 672 168"><defs><path id="a" stroke="#000" stroke-width="1" d="M-30-20v70l60-30v-70z"/><path id="f" stroke="#06f" d="M0 0a20 20 0 00-42-2l-2-10m2 10l6-8"/><path id="g" stroke="#06f" d="M0 0a40 25 0 00-92 4l-2-10m2 10l6-8"/><path id="e" stroke="red" d="M0 0a70 45 0 00-152 0l-2-10m2 10l6-8"/><g id="b"><use fill="#0f0" xlink:href="#a"/><text y=".7ex">I</text></g><g id="d"><use fill="#f99" xlink:href="#a"/><text y=".7ex">P</text></g><g id="c"><use fill="#6cf" xlink:href="#a"/><text y=".7ex">B</text></g><g id="h"><use xlink:href="#b"/><use transform="translate(50)" xlink:href="#c"/><use transform="translate(100)" xlink:href="#c"/><use transform="translate(150)" xlink:href="#d"/><use transform="translate(200)" xlink:href="#c"/><use transform="translate(250)" xlink:href="#c"/><use transform="translate(150 -40)" xlink:href="#e"/><use transform="translate(50 -40)" xlink:href="#f"/><use transform="matrix(-1 0 0 1 50 -40)" xlink:href="#g"/><use transform="matrix(1 0 0 -1 100 40)" xlink:href="#g"/><use transform="rotate(180 50 20)" xlink:href="#f"/><use transform="translate(200 -40)" xlink:href="#f"/><use transform="matrix(-1 0 0 1 200 -40)" xlink:href="#g"/><use transform="matrix(1 0 0 -1 250 40)" xlink:href="#g"/><use transform="rotate(180 125 20)" xlink:href="#f"/></g></defs><circle r="99999" fill="#fff"/><g fill="none" stroke-linecap="round" stroke-linejoin="round" stroke-width="2" font-family="Helvetica,Arial,sans-serif" font-size="40" text-anchor="middle"><use xlink:href="#h"/><use transform="translate(300)" xlink:href="#h"/><use transform="translate(600)" xlink:href="#b"/><path stroke="#000" d="M610-75h20l-10-10m10 10l-10 10"/><text x="600" y="-75" fill="#000" dy=".6ex" font-style="italic">t</text></g></svg>