<svg xmlns="http://www.w3.org/2000/svg" xmlns:xlink="http://www.w3.org/1999/xlink" width="100%" height="100%" version="1.1" viewBox="-35 -95 672 168"><title>IBBPBB inter frame group of pictures</title><desc>Illustration of dependencies of the group of pictures scheme IBBPBB... by CMG Lee. Time goes from left to right.</desc><defs><path id="frame" stroke="#000" stroke-width="1" d="M -30,-20 V 50 L 30,20 V -50 Z"/><g id="frame_i"><use fill="#0f0" xlink:href="#frame"/><text x="0" y=".7ex" fill="#000">I</text></g><g id="frame_p"><use fill="#f99" xlink:href="#frame"/><text x="0" y=".7ex" fill="#000">P</text></g><g id="frame_b"><use fill="#6cf" xlink:href="#frame"/><text x="0" y=".7ex" fill="#000">B</text></g><path id="arrow_1" stroke="#06f" d="M 0,0 a 20,20 0 0 0 -42,-2 l -2,-10 m 2,10 l 6,-8"/><path id="arrow_2" stroke="#06f" d="M 0,0 a 40,25 0 0 0 -92, 4 l -2,-10 m 2,10 l 6,-8"/><path id="arrow_3" stroke="red" d="M 0,0 a 70,45 0 0 0 -152, 0 l -2,-10 m 2,10 l 6,-8"/><g id="set"><use transform="translate( 0,0)" xlink:href="#frame_i"/><use transform="translate( 50,0)" xlink:href="#frame_b"/><use transform="translate(100,0)" xlink:href="#frame_b"/><use transform="translate(150,0)" xlink:href="#frame_p"/><use transform="translate(200,0)" xlink:href="#frame_b"/><use transform="translate(250,0)" xlink:href="#frame_b"/><use transform="translate(150,-40)" xlink:href="#arrow_3"/><use transform="translate( 50,-40) scale( 1, 1)" xlink:href="#arrow_1"/><use transform="translate( 50,-40) scale(-1, 1)" xlink:href="#arrow_2"/><use transform="translate(100, 40) scale( 1,-1)" xlink:href="#arrow_2"/><use transform="translate(100, 40) scale(-1,-1)" xlink:href="#arrow_1"/><use transform="translate(200,-40) scale( 1, 1)" xlink:href="#arrow_1"/><use transform="translate(200,-40) scale(-1, 1)" xlink:href="#arrow_2"/><use transform="translate(250, 40) scale( 1,-1)" xlink:href="#arrow_2"/><use transform="translate(250, 40) scale(-1,-1)" xlink:href="#arrow_1"/></g></defs><circle cx="0" cy="0" r="99999" fill="#fff"/><g fill="none" stroke="none" stroke-linecap="round" stroke-linejoin="round" stroke-width="2" font-family="Helvetica,Arial,sans-serif" font-size="40" text-anchor="middle"><use transform="translate( 0,0)" xlink:href="#set"/><use transform="translate(300,0)" xlink:href="#set"/><use transform="translate(600,0)" xlink:href="#frame_i"/><path fill="none" stroke="#000" d="M 610,-75 h 20 l -10,-10 m 10,10 l -10,10"/><text x="600" y="-75" fill="#000" dy=".6ex" font-style="italic">t</text></g></svg>